<?xml version="1.0" encoding="utf-8"?>
<svg id="Capa_1" data-name="Capa 1" version="1.1" viewBox="0 0 790 200" xmlns="http://www.w3.org/2000/svg">
  <defs>
    <style>
      .cls-1, .cls-2 {
        fill: #188ded;
      }

      .cls-1, .cls-3 {
        fill-rule: evenodd;
        stroke-width: 0px;
      }

      .cls-4 {
        font-size: 60px;
      }

      .cls-4, .cls-5, .cls-6, .cls-7, .cls-8 {
        isolation: isolate;
      }

      .cls-4, .cls-6, .cls-7, .cls-8 {
        font-family: Gotham-Bold, Gotham;
        font-weight: 700;
      }

      .cls-4, .cls-7 {
        fill: #1d1d1b;
      }

      .cls-9 {
        fill: #0d80c4;
        stroke: #7cb92b;
      }

      .cls-9, .cls-2, .cls-10, .cls-11, .cls-12 {
        stroke-miterlimit: 10;
      }

      .cls-9, .cls-10, .cls-12 {
        stroke-width: 20px;
      }

      .cls-2 {
        stroke-width: 8.3px;
      }

      .cls-2, .cls-10, .cls-11, .cls-12 {
        stroke: #fff;
      }

      .cls-13 {
        stroke-width: 15.1px;
      }

      .cls-13, .cls-10, .cls-11, .cls-14, .cls-12 {
        fill: none;
      }

      .cls-13, .cls-14 {
        stroke: #000;
        stroke-linecap: round;
        stroke-miterlimit: 8;
      }

      .cls-6, .cls-7 {
        font-size: 100px;
      }

      .cls-6, .cls-8 {
        fill: #2e77bc;
      }

      .cls-10, .cls-15 {
        display: none;
      }

      .cls-11 {
        stroke-width: 11.1px;
      }

      .cls-14 {
        stroke-width: 14px;
      }

      .cls-3 {
        fill: #000;
      }

      .cls-8 {
        font-size: 130px;
      }
    </style>
  </defs>
  <g id="Capa_1-2" data-name="Capa 1-2" class="cls-15" transform="matrix(1, 0, 0, 1, -1.077465, -160.542252)">
    <g class="cls-5">
      <g class="cls-5">
        <text class="cls-8" transform="translate(237.8 298.7)" style="white-space: pre;"><tspan x="0" y="0">S</tspan></text>
      </g>
      <g class="cls-5">
        <text class="cls-6" transform="translate(322.6 298.7)" style="white-space: pre;"><tspan x="0" y="0">ic</tspan></text>
      </g>
      <g class="cls-5">
        <text class="cls-7" transform="translate(409.5 298.7)" style="white-space: pre;"><tspan x="0" y="0">o</tspan></text>
      </g>
      <g class="cls-5">
        <text class="cls-6" transform="translate(475.1 298.7)" style="white-space: pre;"><tspan x="0" y="0">l</tspan></text>
      </g>
      <g class="cls-5">
        <text class="cls-7" transform="translate(505.1 298.7)" style="white-space: pre;"><tspan x="0" y="0">รณ</tspan></text>
      </g>
      <g class="cls-5">
        <text class="cls-6" transform="translate(570.7 298.7)" style="white-space: pre;"><tspan x="0" y="0">gico</tspan></text>
      </g>
    </g>
    <path class="cls-14" d="M432.3,316.9c29.8,35.5,83.3,34.9,112.5,3.2"/>
  </g>
  <g id="Capa_2" data-name="Capa 2" class="cls-15" transform="matrix(1, 0, 0, 1, -1.077465, -160.542252)">
    <g class="cls-5">
      <g class="cls-5">
        <text class="cls-4" transform="translate(180 276.7)" style="white-space: pre;"><tspan x="0" y="0">El</tspan></text>
      </g>
    </g>
  </g>
  <g id="Capa_3" data-name="Capa 3" transform="matrix(1, 0, 0, 1, -1.077465, -160.542252)">
    <g class="cls-15">
      <path class="cls-9" d="M289,71"/>
      <path class="cls-12" d="M396,306"/>
      <path class="cls-12" d="M360.1,248"/>
    </g>
    <path class="cls-2" d="M174,253.4c0,29.8-17,51-20.8,55.4-2.3,2.6-26.6,29.5-63.3,28.7-40-.9-84.1-34.4-84.1-84.1s37.7-84.1,84.1-84.1,84.1,37.7,84.1,84.1Z"/>
    <path class="cls-2" d="M111.1,173.3c-4-.6-32.1-4.2-51.9,15.2-3.4,3.4-12.9,12.5-15,26.4-2.1,13.8,5.2,19.5.9,30.8-4.5,11.8-16.2,15.7-14.5,20.6,1,3,7.3,7.6,12.4,9.5,1.9,2.9,3.2,6.5,5.1,12.2,4.1,13.1,1.3,16,6.1,19.6,4.2,3.1,11.3,1.4,18-.3,7.7-1.9,9.9-4.5,12.8-3,3.7,1.9,4.2,8.2,4.7,16.4.5,7.1,0,13-.6,16.9h2.3s4.5,0,9.1-.7c29.4-4.1,49.5-24.8,49.5-24.8,18.8-19.4,22.2-41.7,23.1-48.8,1-8.5,1.9-25.5-6.2-43.8-2.1-4.8-18.8-40.8-55.8-46.2h0Z"/>
    <path class="cls-10" d="M387.9,216.3"/>
    <line class="cls-11" x1="96.9" y1="230.1" x2="116" y2="199.4"/>
    <line class="cls-11" x1="82.5" y1="219.8" x2="102.6" y2="231.7"/>
    <path class="cls-10" d="M360.1,216"/>
  </g>
  <g transform="matrix(1, 0, 0, 1, -1.077465, -160.542252)">
    <path class="cls-1" d="M236.4,287.2l13.9-16.9c12.2,10.4,30,11.8,36.1,9.9,4.5-2.2,9.2-9-2.4-12.5-26.1-7.3-43.4-8.8-42-33,1.7-24.4,37.7-38.6,71.7-14.7l-12.4,17.2c-6.7-3.8-12.8-7.7-22.3-8.6-11.5-1.8-18,9.5-4.3,13.3l24.6,6.8c24.5,7.6,26.7,44.8-6.7,52.4-4.1.8-33,6.2-56.2-13.9h0Z"/>
    <polygon class="cls-1" points="328.6 228.1 344.6 228.1 344.6 242.9 328.6 242.9 328.6 228.1 328.6 228.1"/>
    <polygon class="cls-1" points="328.6 248 344.6 248 344.6 301.7 328.6 301.7 328.6 248 328.6 248"/>
    <path class="cls-1" d="M406,292.5c-18.5,19.7-49.1,7.8-49.9-16.7-.5-27.9,32.5-39.2,49.4-20.5l-9.7,9.4c-11.2-11.1-24.8-4.2-25,10.9.6,13.8,17,18.4,26.2,8.1l8.9,8.8h.1Z"/>
    <path class="cls-3" d="M413,274.2c0-15.5,13-28.2,29.1-28.2s29.1,12.6,29.1,28.2-13,28.2-29.1,28.2-29.1-12.6-29.1-28.2h0ZM428.1,274.2c-.3,10.5,9.2,15,13.9,15.1,4.7,0,13.6-2.7,14.4-14.7-.2-11.2-9.8-15-14.5-15.1-4.7,0-13.4,4.2-13.7,14.7h0Z"/>
    <polygon class="cls-1" points="482.8 228.1 498.8 228.1 498.8 301.7 482.8 301.7 482.8 228.1 482.8 228.1"/>
    <path class="cls-3" d="M509,274.2c0-15.5,13-28.2,29.1-28.2s29.1,12.6,29.1,28.2-13,28.2-29.1,28.2-29.1-12.6-29.1-28.2h0ZM524.1,274.2c-.3,10.5,9.2,15,13.9,15.1,4.7,0,13.6-2.7,14.4-14.7-.2-11.2-9.8-15-14.5-15.1-4.7,0-13.4,4.2-13.7,14.7h-.1Z"/>
    <path class="cls-1" d="M729.1,274.2c0-15.5,13-28.2,29.1-28.2s29.1,12.6,29.1,28.2-13,28.2-29.1,28.2-29.1-12.6-29.1-28.2h0ZM744.2,274.2c-.3,10.5,9.2,15,13.9,15.1,4.7,0,13.6-2.7,14.4-14.7-.2-11.2-9.8-15-14.5-15.1-4.7,0-13.4,4.2-13.7,14.7h-.1Z"/>
    <polygon class="cls-1" points="646.6 228.1 662.5 228.1 662.5 242.2 646.6 242.2 646.6 228.1 646.6 228.1"/>
    <polygon class="cls-1" points="646.6 248 662.5 248 662.5 302.4 646.6 302.4 646.6 248 646.6 248"/>
    <path class="cls-1" d="M724,292.5c-18.7,19.7-49.7,7.8-50.5-16.7-.5-27.9,33-39.2,50-20.5l-9.8,9.4c-11.3-11.1-25.1-4.2-25.3,10.9.7,13.8,17.2,18.4,26.6,8.1l9,8.8h0Z"/>
    <path class="cls-1" d="M574.9,272.7c-1.1-16.6,21-37.3,42-16.9,0-3.8,0-3.9-.2-7.2,4.7.1,11.4,0,15.3.4.7,5.9.5,40.3,0,47.6-.8,20.6-28,29.3-54.1,16.3.9-3.1,3.8-7.5,5-10.9,12.5,7,36.5,8.6,33.9-12.3-10.4,15.1-41.6,10.4-41.8-17.1h-.1ZM590.3,272.4c-.3,10.1,10.1,13.3,13.1,13.1,4.9,0,13.5-3.2,13.2-12.4-.2-11.2-9.9-12.5-12.9-12.6s-13.2,1.8-13.5,11.9h.1Z"/>
    <polygon class="cls-3" points="543.3 224.3 557 229.8 544.2 242.2 532 242.1 543.3 224.3 543.3 224.3 543.3 224.3"/>
    <polygon class="cls-3" points="222.4 230.7 231.3 230.7 231.3 275.5 222.4 275.5 222.4 230.7 222.4 230.7"/>
    <path class="cls-3" d="M182.7,233.9h30.5v8.6h-21.9v8.6h19.2v8.1h-19.1v8.5h22v7.8h-30.7v-41.6h0Z"/>
    <path class="cls-13" d="M431.9,320.6c37.4,40.1,87.6,30.3,113.2,3.1"/>
  </g>
</svg>